<?xml version="1.0" standalone="no"?>
<!DOCTYPE svg PUBLIC "-//W3C//DTD SVG 20010904//EN"
 "http://www.w3.org/TR/2001/REC-SVG-20010904/DTD/svg10.dtd">
<svg version="1.0" xmlns="http://www.w3.org/2000/svg"
 width="500.000000pt" height="500.000000pt" viewBox="0 0 500.000000 500.000000"
 preserveAspectRatio="xMidYMid meet">
<metadata>
Created by potrace 1.11, written by Peter Selinger 2001-2013
</metadata>
<g transform="translate(0.000000,500.000000) scale(0.100000,-0.100000)"
fill="#000000" stroke="none">
<path d="M2678 4841 c-42 -14 -91 -47 -124 -83 -26 -29 -124 -172 -124 -181 0
-2 -27 -52 -60 -111 -33 -59 -60 -110 -60 -113 0 -2 -25 -55 -55 -116 -30 -62
-88 -188 -129 -282 l-75 -170 -183 -6 c-177 -5 -185 -6 -243 -35 -71 -35 -166
-120 -202 -181 -22 -38 -25 -52 -20 -95 4 -32 14 -60 28 -74 22 -24 96 -59
145 -69 90 -19 186 -34 223 -36 23 -2 44 -6 46 -9 2 -4 -12 -49 -31 -101 -111
-298 -326 -967 -370 -1149 -2 -8 -10 -40 -18 -70 -8 -30 -17 -66 -20 -80 -3
-14 -19 -83 -36 -155 -28 -120 -56 -271 -66 -355 -2 -19 -6 -48 -8 -65 -33
-201 -21 -503 23 -610 5 -11 20 -48 34 -82 13 -33 41 -86 62 -117 39 -59 149
-166 171 -166 8 0 14 -4 14 -9 0 -11 110 -60 174 -77 151 -41 376 -39 536 5
218 60 443 192 605 355 64 64 135 154 135 171 0 4 9 20 21 36 47 66 77 203 62
281 -8 42 -50 78 -90 78 -44 0 -85 -22 -213 -115 -197 -143 -391 -220 -565
-224 -218 -5 -295 84 -281 323 3 61 8 122 10 136 3 14 7 43 11 65 3 22 13 69
21 105 8 36 17 81 20 100 3 19 8 38 11 43 2 4 6 17 8 30 29 153 213 720 363
1112 113 297 164 428 185 478 l17 37 107 1 c531 5 877 113 980 304 22 40 41
124 38 164 -6 69 12 66 -471 63 l-435 -3 15 33 c21 48 71 157 132 287 30 62
54 115 54 117 0 2 14 32 31 66 44 91 70 175 70 236 2 107 -87 234 -201 289
-46 22 -71 27 -150 30 -52 1 -107 -2 -122 -6z"/>
<path d="M3499 1013 c-10 -11 -14 -52 -16 -142 -1 -69 -2 -129 -2 -132 -1 -3
-21 -5 -46 -4 -38 2 -49 -2 -65 -22 -16 -20 -17 -29 -8 -46 20 -38 249 -257
268 -257 23 0 255 226 268 261 16 40 -7 61 -67 62 l-51 2 -1 60 c0 33 0 88 1
123 1 43 -4 71 -15 88 -15 23 -19 24 -134 24 -98 0 -121 -3 -132 -17z"/>
<path d="M3350 292 c-19 -2 -41 -8 -47 -14 -19 -15 -16 -62 5 -74 20 -12 630
-13 650 -1 14 9 16 55 3 76 -7 11 -65 14 -292 15 -156 0 -300 0 -319 -2z"/>
</g>
</svg>
